<svg height="512pt" viewBox="0 -76 512 512" width="512pt" xmlns="http://www.w3.org/2000/svg" xmlns:xlink="http://www.w3.org/1999/xlink"><linearGradient id="a" gradientUnits="userSpaceOnUse" x1="0" x2="512" y1="180" y2="180"><stop offset="0" stop-color="#80d8ff"/><stop offset="1" stop-color="#ea80fc"/></linearGradient><path d="m492.050781.00390625c-.015625 0-.035156-.00390625-.050781-.00390625h-472c-.015625 0-.03125.00390625-.050781.00390625-11.21875.02343755-19.949219 9.23828175-19.949219 19.99609375v320c0 11.054688 8.980469 19.996094 19.988281 20h.011719 472 .011719c11.136719-.003906 19.988281-9.144531 19.988281-20v-320c0-10.847656-8.847656-19.96875-19.949219-19.99609375zm-48.679687 39.99609375-187.371094 185.5-187.371094-185.5zm-403.371094 27.941406 113.1875 112.058594-113.1875 112.058594zm28.628906 252.058594 112.984375-111.855469 60.316407 59.710938c7.792968 7.714843 20.347656 7.714843 28.140624 0l60.316407-59.710938 112.984375 111.855469zm403.371094-27.941406-113.1875-112.058594 113.1875-112.058594zm0 0" fill="url(#a)"/></svg>