<?xml version="1.0" encoding="iso-8859-1"?>
<!-- Generator: Adobe Illustrator 19.0.0, SVG Export Plug-In . SVG Version: 6.00 Build 0)  -->
<svg version="1.1" id="Capa_1" xmlns="http://www.w3.org/2000/svg" xmlns:xlink="http://www.w3.org/1999/xlink" x="0px" y="0px"
	 viewBox="0 0 512 512" style="enable-background:new 0 0 512 512;" xml:space="preserve">
<linearGradient id="SVGID_1_" gradientUnits="userSpaceOnUse" x1="71" y1="258" x2="441" y2="258" gradientTransform="matrix(1 0 0 -1 0 514)">
	<stop  offset="0" style="stop-color:#80D8FF"/>
	<stop  offset="1" style="stop-color:#EA80FC"/>
</linearGradient>
<path style="fill:url(#SVGID_1_);" d="M286,0c-85.467,0-155,69.533-155,155v35.227l-56,74.666
	c-4.545,6.06-5.276,14.168-1.889,20.944C76.5,292.613,83.424,296.893,91,296.893h40V386c0,11.046,8.954,20,20,20h130v86
	c0,11.046,8.954,20,20,20h120c11.046,0,20-8.954,20-20V155C441,69.533,371.467,0,286,0z M401,472h-80v-86c0-11.046-8.954-20-20-20
	H171v-89.107c0-11.046-8.954-20-20-20h-20l36-48c2.597-3.462,4-7.672,4-12V155c0-63.411,51.589-115,115-115s115,51.589,115,115V472z
	"/>
<g>
</g>
<g>
</g>
<g>
</g>
<g>
</g>
<g>
</g>
<g>
</g>
<g>
</g>
<g>
</g>
<g>
</g>
<g>
</g>
<g>
</g>
<g>
</g>
<g>
</g>
<g>
</g>
<g>
</g>
</svg>
