<?xml version="1.0" encoding="iso-8859-1"?>
<!-- Generator: Adobe Illustrator 19.0.0, SVG Export Plug-In . SVG Version: 6.00 Build 0)  -->
<svg version="1.1" id="Capa_1" xmlns="http://www.w3.org/2000/svg" xmlns:xlink="http://www.w3.org/1999/xlink" x="0px" y="0px"
	 viewBox="0 0 512 512" style="enable-background:new 0 0 512 512;" xml:space="preserve">
<linearGradient id="SVGID_1_" gradientUnits="userSpaceOnUse" x1="3.855273e-004" y1="257.997" x2="512.0042" y2="257.997" gradientTransform="matrix(1 0 0 -1 -3.855243e-004 513.9949)">
	<stop  offset="0" style="stop-color:#80D8FF"/>
	<stop  offset="1" style="stop-color:#EA80FC"/>
</linearGradient>
<path style="fill:url(#SVGID_1_);" d="M331.881,511.078C176.586,480.787,31.212,335.412,0.922,180.119
	c-3.176-16.283,1.963-33.039,13.746-44.821l64.025-64.026c3.75-3.751,8.838-5.858,14.142-5.858c5.304,0,10.392,2.107,14.142,5.857
	l113.136,113.137c7.806,7.806,7.809,20.475,0,28.285l-28.66,28.659c19.858,31.42,47.777,59.338,79.195,79.195l28.659-28.66
	c7.811-7.811,20.474-7.811,28.284,0l113.136,113.136c3.75,3.751,5.858,8.838,5.858,14.143c0,5.305-2.107,10.392-5.858,14.143
	l-64.025,64.025C364.884,509.152,348.109,514.245,331.881,511.078z M92.835,113.697l-49.884,49.885c0,0.001,0,0.001-0.001,0.002
	c-2.358,2.357-3.394,5.677-2.77,8.878c27.206,139.476,159.815,272.14,299.358,299.358c3.202,0.623,6.522-0.411,8.88-2.771
	l49.884-49.884l-84.852-84.852l-25.456,25.456c-6.274,6.274-15.936,7.666-23.725,3.412c-48.159-26.291-89.16-67.291-115.451-115.451
	c-4.252-7.789-2.863-17.45,3.413-23.726l25.456-25.455L92.835,113.697z M512,255.998c0-68.379-26.628-132.666-74.979-181.019
	C388.669,26.629,324.381,0,256.002,0c-11.046,0-20,8.954-20,20s8.954,20,20,20c57.696,0,111.937,22.468,152.734,63.265
	C449.532,144.062,472,198.303,472,255.998c0,11.046,8.954,20,20,20S512,267.044,512,255.998z"/>
<g>
</g>
<g>
</g>
<g>
</g>
<g>
</g>
<g>
</g>
<g>
</g>
<g>
</g>
<g>
</g>
<g>
</g>
<g>
</g>
<g>
</g>
<g>
</g>
<g>
</g>
<g>
</g>
<g>
</g>
</svg>
